<svg width="640" height="640" viewBox="0 0 640 640" fill="none" xmlns="http://www.w3.org/2000/svg">
<path d="M320 187.31C419.259 187.31 499.5 249.876 499.5 326.81C499.5 403.744 419.259 466.31 320 466.31C220.741 466.31 140.5 403.744 140.5 326.81C140.5 249.876 220.741 187.31 320 187.31Z" fill="black" stroke="black"/>
<mask id="path-2-inside-1_28_2" fill="white">
<path fill-rule="evenodd" clip-rule="evenodd" d="M468.415 247.571C435.522 219.802 388.373 202.405 336 202.405C236.589 202.405 156 265.085 156 342.405C156 371.818 167.662 399.112 187.585 421.644C158.043 396.703 140 363.395 140 326.81C140 249.49 220.589 186.81 320 186.81C381.595 186.81 435.963 210.872 468.415 247.571Z"/>
</mask>
<path fill-rule="evenodd" clip-rule="evenodd" d="M468.415 247.571C435.522 219.802 388.373 202.405 336 202.405C236.589 202.405 156 265.085 156 342.405C156 371.818 167.662 399.112 187.585 421.644C158.043 396.703 140 363.395 140 326.81C140 249.49 220.589 186.81 320 186.81C381.595 186.81 435.963 210.872 468.415 247.571Z" fill="white" fill-opacity="0.2"/>
<path d="M468.415 247.571L467.769 248.335L469.164 246.909L468.415 247.571ZM187.585 421.644L186.94 422.408L188.335 420.981L187.585 421.644ZM336 203.405C388.159 203.405 435.073 220.732 467.769 248.335L469.06 246.807C435.97 218.872 388.587 201.405 336 201.405V203.405ZM157 342.405C157 265.857 236.893 203.405 336 203.405V201.405C236.285 201.405 155 264.313 155 342.405H157ZM188.335 420.981C168.55 398.607 157 371.541 157 342.405H155C155 372.094 166.774 399.618 186.836 422.306L188.335 420.981ZM188.231 420.879C158.868 396.091 141 363.046 141 326.81H139C139 363.744 157.218 397.315 186.94 422.408L188.231 420.879ZM141 326.81C141 250.261 220.893 187.81 320 187.81V185.81C220.285 185.81 139 248.718 139 326.81H141ZM320 187.81C381.349 187.81 435.43 211.778 467.665 248.233L469.164 246.909C436.497 209.966 381.84 185.81 320 185.81V187.81Z" fill="black" mask="url(#path-2-inside-1_28_2)"/>
<path d="M391 258.31C425.019 258.31 452.5 282.985 452.5 313.31C452.5 343.635 425.019 368.31 391 368.31C356.981 368.31 329.5 343.635 329.5 313.31C329.5 282.985 356.981 258.31 391 258.31Z" fill="white" stroke="black"/>
<path d="M247 291.31C269.391 291.31 287.5 308.57 287.5 329.81C287.5 351.049 269.391 368.31 247 368.31C224.609 368.31 206.5 351.049 206.5 329.81C206.5 308.57 224.609 291.31 247 291.31Z" fill="white" stroke="black"/>
<circle cx="247" cy="329.81" r="9.5" fill="black"/>
<ellipse cx="391" cy="318.81" rx="20" ry="20.5" fill="black"/>
<ellipse cx="175.986" cy="114.318" rx="16" ry="12" transform="rotate(-120.485 175.986 114.318)" fill="black"/>
<ellipse cx="390.832" cy="92.5607" rx="16" ry="12" transform="rotate(-75 390.832 92.5607)" fill="black"/>
<path d="M390.5 96.4048C390.5 96.4048 386.5 98.9048 372.5 141.905C358.5 184.905 359.5 202.905 359.5 202.905" stroke="black" stroke-width="6"/>
<path d="M227.673 210.754C227.673 210.754 228.784 206.17 208.725 165.641C188.666 125.111 174.587 119.298 174.587 119.298" stroke="black" stroke-width="6"/>
<path d="M272.579 504.04V505.336V506.632H261.635H250.691L250.547 525.928V545.08L250.115 546.088C249.923 546.664 249.779 547.096 249.683 547.384L252.131 547.672C253.475 547.672 256.835 547.672 262.211 547.672H274.883V549.112V550.408H246.227H217.715L217.571 548.968V547.672H230.963L244.355 547.528V527.08V506.632H233.555H222.611V505.336V504.04H247.667H272.579ZM328.193 496.552C330.401 496.552 331.505 496.624 331.505 496.768C331.505 496.912 331.049 498.688 330.137 502.096C329.225 505.504 328.769 507.28 328.769 507.424C328.769 507.568 332.081 507.64 338.705 507.64H348.641V508.936V510.232H342.017L335.249 510.376V515.992L335.105 521.752H340.721C344.369 521.752 346.193 521.8 346.193 521.896C346.193 522.376 346.193 522.808 346.193 523.192V524.488H340.721L335.249 524.632V530.248L335.105 536.008H340.721L346.193 536.152V537.304C346.193 538.072 346.193 538.504 346.193 538.6C346.193 538.696 344.369 538.744 340.721 538.744H335.105V544.648C335.105 546.856 335.105 548.44 335.105 549.4C335.105 550.36 335.057 551.08 334.961 551.56C334.769 552.232 334.481 553 334.097 553.864C333.713 554.632 333.233 555.304 332.657 555.88C332.081 556.456 331.553 556.888 331.073 557.176C330.497 557.368 330.113 557.512 329.921 557.608L329.489 557.752V533.992V510.232H328.481C327.905 510.232 327.521 510.376 327.329 510.664C327.233 510.76 326.897 511.288 326.321 512.248C325.745 513.112 325.121 513.88 324.449 514.552C323.681 515.416 322.961 516.088 322.289 516.568C321.617 517.048 320.849 517.528 319.985 518.008C319.217 518.392 318.593 518.584 318.113 518.584C317.729 518.584 317.345 518.536 316.961 518.44H316.529L317.969 515.56C318.929 513.64 319.649 512.104 320.129 510.952C320.705 509.704 321.233 508.456 321.713 507.208C322.193 505.96 322.817 503.848 323.585 500.872L324.737 496.552H328.193ZM310.769 496.696C313.073 496.696 314.225 496.72 314.225 496.768C314.225 496.816 314.033 497.512 313.649 498.856C313.265 500.2 312.833 501.448 312.353 502.6L311.633 504.184L311.489 526.504V548.68L311.057 550.552C310.769 551.704 310.433 552.76 310.049 553.72C309.569 554.68 309.185 555.4 308.897 555.88C308.513 556.456 308.177 556.888 307.889 557.176C307.601 557.464 307.121 557.608 306.449 557.608H305.585L305.441 536.152V514.696L304.433 515.704C303.761 516.376 302.993 517.048 302.129 517.72C301.361 518.392 300.545 518.968 299.681 519.448C298.913 519.928 298.097 520.408 297.233 520.888C296.369 521.272 295.505 521.608 294.641 521.896C293.777 522.184 293.105 522.376 292.625 522.472C292.145 522.568 291.809 522.472 291.617 522.184L291.329 521.608L292.625 520.888C293.585 520.408 294.497 519.784 295.361 519.016C296.129 518.344 296.993 517.528 297.953 516.568C298.817 515.608 299.681 514.456 300.545 513.112C301.409 511.768 302.273 510.232 303.137 508.504C304.001 506.776 304.673 505.192 305.153 503.752C305.729 502.12 306.257 500.584 306.737 499.144L307.313 496.696H310.769ZM398.351 499V500.44C398.351 501.304 398.303 502.072 398.207 502.744C398.015 503.32 397.775 503.896 397.487 504.472C397.199 505.048 396.863 505.528 396.479 505.912L395.759 506.632H405.551H415.199V506.056L415.055 505.336L417.215 505.192C418.559 505.192 419.519 505.192 420.095 505.192H420.959L421.391 507.064C421.583 508.216 421.823 509.224 422.111 510.088C422.303 510.856 422.591 511.6 422.975 512.32C423.359 513.04 423.551 513.448 423.551 513.544C423.551 513.64 423.263 513.592 422.687 513.4C422.207 513.208 421.535 512.968 420.671 512.68C419.903 512.296 419.279 511.912 418.799 511.528C418.319 511.24 417.791 510.808 417.215 510.232L416.351 509.368H394.175H371.855L370.847 510.232C370.271 510.712 369.479 511.192 368.471 511.672C367.463 512.152 366.743 512.44 366.311 512.536C365.879 512.632 365.615 512.656 365.519 512.608C365.423 512.56 365.567 512.152 365.951 511.384C366.335 510.712 366.671 509.896 366.959 508.936C367.247 507.88 367.487 506.872 367.679 505.912C367.871 504.856 368.063 504.328 368.255 504.328C368.351 504.232 369.311 504.232 371.135 504.328C372.863 504.424 373.751 504.52 373.799 504.616C373.847 504.712 373.823 505.048 373.727 505.624L373.583 506.632H382.799H392.159V502.888V499H395.327H398.351ZM416.495 515.704V517V518.296H404.399H392.447L385.967 523.048C381.743 526.216 379.583 527.848 379.487 527.944C379.487 527.944 380.135 527.944 381.431 527.944C382.727 527.944 384.527 527.944 386.831 527.944C389.135 527.944 391.583 527.944 394.175 527.944H408.863L408.575 527.368C408.383 526.888 408.191 526.312 407.999 525.64C407.807 524.968 407.759 524.392 407.855 523.912C407.951 523.528 408.095 523.144 408.287 522.76C408.383 522.376 408.671 522.04 409.151 521.752C409.535 521.464 409.775 521.416 409.871 521.608C409.871 521.608 410.063 521.848 410.447 522.328C410.831 522.808 411.383 523.48 412.103 524.344C412.823 525.208 413.471 526.024 414.047 526.792C416.639 530.152 417.887 531.88 417.791 531.976C417.599 532.168 416.975 532.648 415.919 533.416L414.191 534.712L413.471 533.704C412.607 532.744 412.079 532.12 411.887 531.832L411.023 530.824H392.735H374.447V529.384V528.088L379.631 523.768C383.375 520.696 385.295 519.112 385.391 519.016L386.255 518.296H379.055H371.999V517V515.704H394.175H416.495ZM397.775 533.416V536.44V539.608H406.703L415.775 539.752V540.904V542.2L406.847 542.344H397.919L397.775 545.944C397.679 548.344 397.535 549.784 397.343 550.264C397.151 550.744 396.959 551.224 396.767 551.704C396.479 552.184 396.335 552.448 396.335 552.496C396.335 552.544 400.847 552.568 409.871 552.568H423.407V553.864V555.16H393.599H363.791V553.864V552.568H377.615H391.295V547.384V542.344H382.079L373.007 542.2V540.904V539.608H382.223H391.295V536.44V533.416H394.607H397.775Z" fill="black"/>
</svg>
